<?xml version="1.0" encoding="UTF-8"?>
<svg width="512" height="512" viewBox="0 0 512 512" xmlns="http://www.w3.org/2000/svg">
    <!-- Background circle -->
    <circle cx="256" cy="256" r="256" fill="#6B5B4E"/>
    
    <!-- Radial gradient overlay -->
    <circle cx="256" cy="256" r="256" fill="url(#radialGlow)"/>
    
    <!-- Dancing figures -->
    <g id="dancers">
        <!-- Figure 1 -->
        <g transform="translate(156, 380)">
            <circle class="light" cx="0" cy="-30" r="8" fill="#FFE0A3">
                <animate attributeName="opacity" values="0.5;1;0.5" dur="2s" repeatCount="indefinite"/>
            </circle>
            <path d="M-10,-20 C-15,-10 15,-10 10,-20 L0,-40 Z" fill="#F5F5DC"/>
            <circle cx="0" cy="-45" r="8" fill="#F5F5DC"/>
            <path d="M-15,0 Q0,-15 15,0" stroke="#F5F5DC" fill="none" stroke-width="3"/>
        </g>
        
        <!-- Figure 2 -->
        <g transform="translate(256, 390)">
            <circle class="light" cx="0" cy="-30" r="8" fill="#FFE0A3">
                <animate attributeName="opacity" values="1;0.5;1" dur="2s" repeatCount="indefinite"/>
            </circle>
            <path d="M-10,-20 C-15,-10 15,-10 10,-20 L0,-40 Z" fill="#F5F5DC"/>
            <circle cx="0" cy="-45" r="8" fill="#F5F5DC"/>
            <path d="M-15,0 Q0,-15 15,0" stroke="#F5F5DC" fill="none" stroke-width="3"/>
        </g>
        
        <!-- Figure 3 -->
        <g transform="translate(356, 380)">
            <circle class="light" cx="0" cy="-30" r="8" fill="#FFE0A3">
                <animate attributeName="opacity" values="0.5;1;0.5" dur="2s" repeatCount="indefinite"/>
            </circle>
            <path d="M-10,-20 C-15,-10 15,-10 10,-20 L0,-40 Z" fill="#F5F5DC"/>
            <circle cx="0" cy="-45" r="8" fill="#F5F5DC"/>
            <path d="M-15,0 Q0,-15 15,0" stroke="#F5F5DC" fill="none" stroke-width="3"/>
        </g>
    </g>
    
    <!-- Stylized "S" in the center -->
    <path d="M316,206 C316,169 290,140 256,140 C222,140 196,169 196,206 C196,243 222,272 256,272 C290,272 316,301 316,338 C316,375 290,404 256,404 C222,404 196,375 196,338" 
          stroke="#F5F5DC" 
          fill="none" 
          stroke-width="24"
          stroke-linecap="round">
        <animate attributeName="stroke-dasharray" from="0,1000" to="1000,1000" dur="2s" fill="freeze"/>
    </path>
    
    <!-- Light beams from the dancers -->
    <g>
        <path d="M156,350 L256,256" stroke="#FFE0A3" stroke-width="2" opacity="0.3">
            <animate attributeName="opacity" values="0.1;0.3;0.1" dur="3s" repeatCount="indefinite"/>
        </path>
        <path d="M256,360 L256,256" stroke="#FFE0A3" stroke-width="2" opacity="0.3">
            <animate attributeName="opacity" values="0.3;0.1;0.3" dur="3s" repeatCount="indefinite"/>
        </path>
        <path d="M356,350 L256,256" stroke="#FFE0A3" stroke-width="2" opacity="0.3">
            <animate attributeName="opacity" values="0.1;0.3;0.1" dur="3s" repeatCount="indefinite"/>
        </path>
    </g>
    
    <!-- Definitions -->
    <defs>
        <radialGradient id="radialGlow" cx="50%" cy="50%" r="50%" fx="50%" fy="50%">
            <stop offset="0%" style="stop-color:#8B7355;stop-opacity:0.8"/>
            <stop offset="100%" style="stop-color:#6B5B4E;stop-opacity:1"/>
        </radialGradient>
    </defs>
    
    <!-- Subtle rotating shine effect -->
    <g>
        <circle cx="256" cy="256" r="200" fill="none" stroke="url(#radialGlow)" stroke-width="4">
            <animateTransform attributeName="transform"
                          attributeType="XML"
                          type="rotate"
                          from="0 256 256"
                          to="360 256 256"
                          dur="20s"
                          repeatCount="indefinite"/>
        </circle>
    </g>
</svg> 